Input #0, mov,mp4,m4a,3gp,3g2,mj2, from '/home/hbattu/projects/huberman-gpt/huberman-audio/mp3/tmp3656zxrs.mp4':
  Metadata:
    major_brand     : dash
    minor_version   : 0
    compatible_brands: iso6mp41
    creation_time   : 2022-12-12T07:43:59.000000Z
  Duration: 02:22:35.35, start: 0.000000, bitrate: 129 kb/s
    Stream #0:0(eng): Audio: aac (LC) (mp4a / 0x6134706D), 44100 Hz, stereo, fltp, 0 kb/s (default)
    Metadata:
      creation_time   : 2022-12-12T07:43:59.000000Z
      handler_name    : ISO Media file produced by Google Inc.
Stream mapping:
  Stream #0:0 -> #0:0 (aac (native) -> mp3 (libmp3lame))
Press [q] to stop, [?] for help
[graph_0_in_0_0 @ 0x55fc7c89eb40] tb:1/44100 samplefmt:fltp samplerate:44100 chlayout:0x3
Output #0, mp3, to '../huberman-audio/mp3/iw97uvIge7c.mp3':
  Metadata:
    major_brand     : dash
    minor_version   : 0
    compatible_brands: iso6mp41
    TSSE            : Lavf58.29.100
    Stream #0:0(eng): Audio: mp3 (libmp3lame), 44100 Hz, stereo, fltp, delay 1105 (default)
    Metadata:
      creation_time   : 2022-12-12T07:43:59.000000Z
      handler_name    : ISO Media file produced by Google Inc.
      encoder         : Lavc58.54.100 libmp3lame
No more output streams to write to, finishing.
size=  133678kB time=02:22:35.36 bitrate= 128.0kbits/s speed=90.7x    
[AVIOContext @ 0x55fc7c86b900] Statistics: 0 seeks, 189 writeouts
video:0kB audio:133678kB subtitle:0kB other streams:0kB global headers:0kB muxing overhead: 0.000253%
Input file #0 (/home/hbattu/projects/huberman-gpt/huberman-audio/mp3/tmp3656zxrs.mp4):
  Input stream #0:0 (audio): 368448 packets read (136885533 bytes); 368448 frames decoded (377290752 samples); 
  Total: 368448 packets (136885533 bytes) demuxed
Output file #0 (../huberman-audio/mp3/iw97uvIge7c.mp3):
  Output stream #0:0 (audio): 327510 frames encoded (377290752 samples); 327511 packets muxed (136886230 bytes); 
  Total: 327511 packets (136886230 bytes) muxed
[AVIOContext @ 0x55fc7c89e8c0] Statistics: 2 seeks, 524 writeouts
[AVIOContext @ 0x55fc7c874880] Statistics: 138459401 bytes read, 0 seeks
